<svg width="26" height="29" viewBox="0 0 26 29" fill="none" xmlns="http://www.w3.org/2000/svg">
<path d="M21.6667 21.75H4.33333V18.85H21.6667V21.75ZM21.6667 15.95H4.33333V13.05H21.6667V15.95ZM21.6667 10.15H4.33333V7.25H21.6667V10.15ZM0 29L2.16667 26.825L4.33333 29L6.5 26.825L8.66667 29L10.8333 26.825L13 29L15.1667 26.825L17.3333 29L19.5 26.825L21.6667 29L23.8333 26.825L26 29V0L23.8333 2.175L21.6667 0L19.5 2.175L17.3333 0L15.1667 2.175L13 0L10.8333 2.175L8.66667 0L6.5 2.175L4.33333 0L2.16667 2.175L0 0V29Z" fill="#969696"/>
</svg>
