<svg width="88" height="136" viewBox="0 0 88 136" fill="none" xmlns="http://www.w3.org/2000/svg">
<path d="M73.3333 66H14.6667V57.2H73.3333V66ZM73.3333 48.4H14.6667V39.6H73.3333V48.4ZM73.3333 30.8H14.6667V22H73.3333V30.8ZM0 88L7.33333 81.4L14.6667 88L22 81.4L29.3333 88L36.6667 81.4L44 88L51.3333 81.4L58.6667 88L66 81.4L73.3333 88L80.6667 81.4L88 88V0L80.6667 6.6L73.3333 0L66 6.6L58.6667 0L51.3333 6.6L44 0L36.6667 6.6L29.3333 0L22 6.6L14.6667 0L7.33333 6.6L0 0V88Z" fill="#969696"/>
<path d="M9.425 128V116.96H12.725C13.835 116.96 14.78 117.125 15.56 117.455C16.34 117.785 16.965 118.225 17.435 118.775C17.915 119.325 18.265 119.94 18.485 120.62C18.705 121.3 18.815 121.985 18.815 122.675C18.815 123.495 18.665 124.235 18.365 124.895C18.075 125.545 17.675 126.105 17.165 126.575C16.655 127.035 16.065 127.39 15.395 127.64C14.725 127.88 14.015 128 13.265 128H9.425ZM11.6 125.9H12.89C13.99 125.9 14.875 125.615 15.545 125.045C16.225 124.475 16.565 123.635 16.565 122.525C16.565 121.805 16.445 121.22 16.205 120.77C15.975 120.31 15.685 119.955 15.335 119.705C14.995 119.455 14.645 119.285 14.285 119.195C13.925 119.095 13.62 119.045 13.37 119.045H11.6V125.9ZM20.1423 124.64C20.1423 123.97 20.2973 123.37 20.6073 122.84C20.9273 122.31 21.3723 121.895 21.9423 121.595C22.5123 121.285 23.1673 121.13 23.9073 121.13C24.6573 121.13 25.3073 121.285 25.8573 121.595C26.4073 121.895 26.8273 122.31 27.1173 122.84C27.4173 123.37 27.5673 123.97 27.5673 124.64C27.5673 125.31 27.4173 125.915 27.1173 126.455C26.8273 126.985 26.4073 127.405 25.8573 127.715C25.3073 128.025 24.6473 128.18 23.8773 128.18C23.1573 128.18 22.5123 128.04 21.9423 127.76C21.3823 127.48 20.9423 127.075 20.6223 126.545C20.3023 126.015 20.1423 125.38 20.1423 124.64ZM22.2573 124.655C22.2573 125.175 22.4073 125.61 22.7073 125.96C23.0073 126.3 23.3873 126.47 23.8473 126.47C24.3373 126.47 24.7273 126.3 25.0173 125.96C25.3073 125.61 25.4523 125.175 25.4523 124.655C25.4523 124.135 25.3073 123.705 25.0173 123.365C24.7273 123.015 24.3373 122.84 23.8473 122.84C23.3873 122.84 23.0073 123.015 22.7073 123.365C22.4073 123.705 22.2573 124.135 22.2573 124.655ZM33.6819 121.445L34.9119 124.34L35.9919 121.445H38.0319L35.0769 128.39L32.9769 124.04L31.0569 128.39L28.0719 121.445H30.1119L31.3269 124.22L32.2419 122.195L31.8969 121.445H33.6819ZM41.1608 121.445L41.3108 122.495C41.5408 122.085 41.8658 121.755 42.2858 121.505C42.7058 121.255 43.2158 121.13 43.8158 121.13C44.4358 121.13 44.9508 121.315 45.3608 121.685C45.7808 122.045 45.9958 122.515 46.0058 123.095V128H43.9058V123.875C43.8958 123.585 43.8158 123.355 43.6658 123.185C43.5258 123.005 43.2858 122.915 42.9458 122.915C42.4558 122.915 42.0658 123.145 41.7758 123.605C41.4958 124.055 41.3558 124.63 41.3558 125.33V128H39.2558V121.445H41.1608ZM48.162 116.165H50.262V128H48.162V116.165ZM51.9147 124.64C51.9147 123.97 52.0697 123.37 52.3797 122.84C52.6997 122.31 53.1447 121.895 53.7147 121.595C54.2847 121.285 54.9397 121.13 55.6797 121.13C56.4297 121.13 57.0797 121.285 57.6297 121.595C58.1797 121.895 58.5997 122.31 58.8897 122.84C59.1897 123.37 59.3397 123.97 59.3397 124.64C59.3397 125.31 59.1897 125.915 58.8897 126.455C58.5997 126.985 58.1797 127.405 57.6297 127.715C57.0797 128.025 56.4197 128.18 55.6497 128.18C54.9297 128.18 54.2847 128.04 53.7147 127.76C53.1547 127.48 52.7147 127.075 52.3947 126.545C52.0747 126.015 51.9147 125.38 51.9147 124.64ZM54.0297 124.655C54.0297 125.175 54.1797 125.61 54.4797 125.96C54.7797 126.3 55.1597 126.47 55.6197 126.47C56.1097 126.47 56.4997 126.3 56.7897 125.96C57.0797 125.61 57.2247 125.175 57.2247 124.655C57.2247 124.135 57.0797 123.705 56.7897 123.365C56.4997 123.015 56.1097 122.84 55.6197 122.84C55.1597 122.84 54.7797 123.015 54.4797 123.365C54.1797 123.705 54.0297 124.135 54.0297 124.655ZM63.7541 128.18C63.1441 128.18 62.5891 128.06 62.0891 127.82C61.5991 127.57 61.2091 127.19 60.9191 126.68C60.6291 126.17 60.4841 125.52 60.4841 124.73C60.4841 123.99 60.6341 123.35 60.9341 122.81C61.2341 122.27 61.6291 121.855 62.1191 121.565C62.6091 121.265 63.1291 121.115 63.6791 121.115C64.3291 121.115 64.8191 121.22 65.1491 121.43C65.4891 121.64 65.7591 121.87 65.9591 122.12L66.0941 121.445H68.0441V128H65.9441V127.19C65.8441 127.29 65.6941 127.42 65.4941 127.58C65.3041 127.74 65.0641 127.88 64.7741 128C64.4841 128.12 64.1441 128.18 63.7541 128.18ZM64.3541 126.47C65.0841 126.47 65.6141 126.14 65.9441 125.48V123.875C65.8241 123.555 65.6141 123.3 65.3141 123.11C65.0241 122.92 64.6791 122.825 64.2791 122.825C63.8291 122.825 63.4391 122.995 63.1091 123.335C62.7791 123.665 62.6141 124.095 62.6141 124.625C62.6141 124.975 62.6941 125.29 62.8541 125.57C63.0141 125.85 63.2241 126.07 63.4841 126.23C63.7541 126.39 64.0441 126.47 64.3541 126.47ZM72.8779 128.18C72.2679 128.18 71.7229 128.04 71.2429 127.76C70.7629 127.47 70.3829 127.055 70.1029 126.515C69.8329 125.975 69.6979 125.335 69.6979 124.595C69.6979 123.855 69.8479 123.225 70.1479 122.705C70.4479 122.185 70.8579 121.79 71.3779 121.52C71.8979 121.25 72.4879 121.115 73.1479 121.115C73.5679 121.115 73.9679 121.18 74.3479 121.31C74.7379 121.44 75.0629 121.64 75.3229 121.91V116.165H77.4079V128H75.3079V127.31C74.9879 127.56 74.6279 127.77 74.2279 127.94C73.8279 128.1 73.3779 128.18 72.8779 128.18ZM73.5679 126.41C73.9879 126.41 74.3379 126.33 74.6179 126.17C74.8979 126 75.1279 125.75 75.3079 125.42V123.815C75.1879 123.495 74.9729 123.24 74.6629 123.05C74.3529 122.86 73.9879 122.765 73.5679 122.765C73.2579 122.765 72.9679 122.845 72.6979 123.005C72.4379 123.155 72.2279 123.365 72.0679 123.635C71.9079 123.905 71.8279 124.215 71.8279 124.565C71.8279 124.915 71.9079 125.23 72.0679 125.51C72.2279 125.79 72.4379 126.01 72.6979 126.17C72.9679 126.33 73.2579 126.41 73.5679 126.41Z" fill="#484848"/>
<path d="M8 129.875H78.4879V130.625H8V129.875Z" fill="#484848"/>
</svg>
