<svg width="315" height="440" viewBox="0 0 315 440" fill="none" xmlns="http://www.w3.org/2000/svg">
<path d="M277.614 428.214L265.193 428.213L259.285 379.762L277.619 379.764L277.614 428.214Z" fill="#FFB8B8"/>
<path d="M256.131 424.286H280.238V440H240.952C240.952 437.936 241.345 435.893 242.108 433.986C242.87 432.08 243.988 430.347 245.398 428.888C246.807 427.429 248.481 426.272 250.322 425.482C252.164 424.692 254.137 424.286 256.131 424.286Z" fill="#2F2E41"/>
<path d="M149.281 428.214L136.86 428.213L130.952 379.762L149.285 379.764L149.281 428.214Z" fill="#FFB8B8"/>
<path d="M127.797 424.286H151.905V440H112.619C112.619 437.936 113.012 435.893 113.774 433.986C114.537 432.08 115.655 430.347 117.065 428.888C118.474 427.429 120.147 426.272 121.989 425.482C123.83 424.692 125.804 424.286 127.797 424.286Z" fill="#2F2E41"/>
<path d="M191.19 69.9297V64.4102C191.19 54.9683 194.915 45.9132 201.546 39.2368C208.177 32.5603 217.17 28.8096 226.547 28.8096H226.547C235.925 28.8096 244.918 32.5603 251.549 39.2368C258.179 45.9132 261.905 54.9683 261.905 64.4102V69.9297C261.905 76.7366 259.219 83.2648 254.439 88.078C249.658 92.8912 243.175 95.5952 236.415 95.5952H216.68C213.333 95.5952 210.018 94.9314 206.926 93.6416C203.833 92.3518 201.023 90.4613 198.656 88.078C196.289 85.6947 194.412 82.8654 193.131 79.7515C191.85 76.6376 191.19 73.3002 191.19 69.9297Z" fill="#2F2E41"/>
<path d="M226.548 96.9043C241.735 96.9043 254.048 84.8853 254.048 70.0591C254.048 55.2329 241.735 43.2139 226.548 43.2139C211.36 43.2139 199.048 55.2329 199.048 70.0591C199.048 84.8853 211.36 96.9043 226.548 96.9043Z" fill="#FFB8B8"/>
<path d="M80.4849 162.602C81.5559 161.557 82.8355 160.768 84.2337 160.29C85.6319 159.812 87.1147 159.656 88.5776 159.833C90.0404 160.011 91.4479 160.517 92.7007 161.317C93.9535 162.117 95.0212 163.191 95.8287 164.463L118.451 160.044L124.405 173.586L92.3724 179.363C90.213 180.622 87.6814 181.019 85.2572 180.48C82.833 179.94 80.6847 178.501 79.2194 176.435C77.7541 174.369 77.0736 171.819 77.3069 169.27C77.5401 166.72 78.6709 164.348 80.4849 162.602V162.602Z" fill="#FFB8B8"/>
<path d="M205.486 113.97L205.786 114.429L168.206 139.422L104.793 159.865C103.952 160.138 103.231 160.696 102.752 161.445C102.274 162.194 102.067 163.087 102.167 163.973L103.551 176.002C103.612 176.534 103.783 177.048 104.052 177.51C104.322 177.972 104.684 178.372 105.115 178.684C105.547 178.996 106.038 179.214 106.558 179.323C107.078 179.433 107.614 179.431 108.133 179.319L167.814 166.404C170.703 165.783 173.434 164.569 175.838 162.838L218.058 132.512C219.588 131.407 220.81 129.92 221.603 128.197C222.396 126.474 222.734 124.574 222.584 122.68C222.429 120.783 221.788 118.96 220.724 117.39C219.659 115.819 218.208 114.556 216.513 113.723C214.818 112.891 212.938 112.518 211.057 112.642C209.176 112.766 207.36 113.381 205.786 114.429L205.486 113.97Z" fill="#CCCCCC"/>
<path d="M265.311 413.809C264.346 413.81 263.402 413.53 262.594 413.006C261.786 412.482 261.149 411.735 260.761 410.856L203.124 269.277C202.989 268.97 202.763 268.711 202.477 268.535C202.19 268.36 201.855 268.276 201.519 268.295C201.183 268.313 200.86 268.434 200.595 268.641C200.33 268.847 200.134 269.13 200.035 269.45L153.013 407.282C152.814 407.924 152.486 408.518 152.048 409.029C151.61 409.539 151.071 409.955 150.465 410.252C149.86 410.548 149.199 410.717 148.525 410.75C147.851 410.783 147.177 410.679 146.545 410.443L130.776 404.565C129.92 404.249 129.17 403.703 128.607 402.988C128.045 402.273 127.693 401.417 127.59 400.515C120.497 339.081 182.357 184.015 182.983 182.456L183.156 182.024L239.547 194.425L239.664 194.552C262.162 218.951 280.655 372.844 284.134 403.447C284.263 404.552 284.01 405.669 283.416 406.612C282.822 407.555 281.923 408.269 280.866 408.636L266.948 413.53C266.422 413.715 265.869 413.809 265.311 413.809Z" fill="#2F2E41"/>
<path d="M216.685 199.048C203.18 199.048 188.123 196.336 183.488 185.144L183.381 184.887L183.525 184.649C187.184 178.604 192.019 168.294 189.42 166.358C184.301 162.546 181.817 156.276 182.037 147.72C182.516 129.148 195.083 112.658 213.308 106.688H213.308C218.395 105.049 223.572 103.707 228.813 102.668C232.634 101.892 236.578 101.977 240.362 102.918C244.146 103.859 247.676 105.633 250.699 108.111C253.759 110.605 256.233 113.751 257.943 117.323C259.653 120.895 260.555 124.803 260.587 128.768C260.778 148.616 257.743 176.26 242.202 195.239C241.473 196.119 240.46 196.713 239.34 196.915C231.863 198.277 224.283 198.99 216.685 199.048Z" fill="#CCCCCC"/>
<path d="M211.226 198.709C211.968 195.984 213.73 193.669 216.128 192.267C218.527 190.864 221.369 190.489 224.037 191.221C224.581 191.377 225.113 191.578 225.625 191.823L243.161 175.477L255.357 183.893L230.279 206.624C229.147 208.715 227.364 210.358 225.215 211.292C223.065 212.226 220.673 212.397 218.418 211.777C217.104 211.409 215.875 210.778 214.801 209.92C213.727 209.062 212.83 207.995 212.161 206.779C211.492 205.564 211.065 204.225 210.905 202.84C210.745 201.455 210.854 200.051 211.226 198.709Z" fill="#FFB8B8"/>
<path d="M240.975 199.047C239.841 199.048 238.742 198.653 237.865 197.93L230.973 192.26C230.398 191.788 229.937 191.19 229.625 190.513C229.312 189.836 229.155 189.096 229.167 188.349C229.178 187.602 229.358 186.868 229.691 186.2C230.024 185.533 230.503 184.95 231.092 184.496L259.998 162.178C260.34 161.912 260.565 161.521 260.623 161.089C260.681 160.658 260.568 160.22 260.308 159.872L242.466 136.127C240.394 133.378 239.354 129.979 239.531 126.532C239.709 123.085 241.092 119.812 243.437 117.293C245.905 114.609 249.286 112.957 252.909 112.665C256.531 112.373 260.13 113.463 262.991 115.718L263.104 115.838L281.734 142.693C283.749 144.284 285.371 146.321 286.474 148.647C287.577 150.972 288.131 153.523 288.093 156.1C288.055 158.677 287.426 161.21 286.254 163.502C285.083 165.793 283.401 167.781 281.341 169.31L243.904 198.076C243.056 198.707 242.029 199.047 240.975 199.047Z" fill="#CCCCCC"/>
<path d="M202.976 62.0657V49.2649L226.438 39.2856L248.809 49.2649V62.0657C248.809 62.6229 248.582 63.1573 248.178 63.5512C247.773 63.9452 247.224 64.1666 246.652 64.1666H205.133C204.561 64.1666 204.012 63.9452 203.608 63.5512C203.203 63.1573 202.976 62.6229 202.976 62.0657Z" fill="#2F2E41"/>
<path d="M224.816 30.6338C221.289 19.3919 228.695 6.50815 239.644 2.05832C250.593 -2.39151 263.692 0.719059 272.931 8.07084C282.17 15.4226 287.902 26.4342 290.939 37.8169C293.976 49.1996 294.552 61.0691 295.113 72.8336C308.565 75.2946 317.716 91.1859 313.056 103.993C308.396 116.8 291.148 123.163 279.236 116.469C267.324 109.775 263.874 91.7807 272.471 81.186C276.539 76.1729 278.811 69.9513 278.928 63.5066C279.045 57.062 277 50.7627 273.116 45.6065C269.233 40.4503 263.733 36.7319 257.488 35.0402C251.243 33.3486 244.61 33.7803 238.64 36.2672C232.01 39.0286 223.691 31.8539 224.816 30.6338Z" fill="#2F2E41"/>
<path d="M75.2975 111.31C59.3548 111.203 43.6114 107.698 29.0844 101.02C28.2196 100.628 27.4856 99.9892 26.9718 99.1808C26.458 98.3724 26.1865 97.4295 26.1905 96.467V56.0642C26.1919 54.7406 26.7098 53.4716 27.6304 52.5356C28.551 51.5997 29.7992 51.0732 31.1012 51.0718H119.494C120.796 51.0733 122.044 51.5997 122.965 52.5357C123.885 53.4716 124.403 54.7406 124.405 56.0642V96.4671C124.409 97.4295 124.137 98.3724 123.623 99.1808C123.109 99.9892 122.375 100.628 121.511 101.02C106.984 107.698 91.2403 111.203 75.2975 111.31Z" fill="#BCB2FF"/>
<path d="M75.1115 78.5713C74.4553 78.5719 73.8056 78.4399 73.2006 78.183L3.00607 48.251C2.10086 47.865 1.33078 47.2139 0.795134 46.3815C0.259489 45.549 -0.0171761 44.5736 0.00082586 43.5808C0.0188278 42.588 0.33069 41.6234 0.896153 40.8113C1.46162 39.9993 2.25476 39.3771 3.17336 39.0249L73.3688 12.1103C74.4994 11.6748 75.7494 11.6775 76.8782 12.1179L146.133 39.0324C147.046 39.3874 147.834 40.0098 148.396 40.8199C148.957 41.63 149.267 42.5909 149.285 43.5798C149.303 44.5687 149.029 45.5406 148.497 46.3711C147.966 47.2015 147.201 47.8529 146.301 48.2418L77.0458 78.1733C76.4342 78.4365 75.7763 78.5719 75.1115 78.5713Z" fill="#BCB2FF"/>
<path d="M34.0479 103.453C37.664 103.453 40.5955 100.521 40.5955 96.905C40.5955 93.2889 37.664 90.3574 34.0479 90.3574C30.4317 90.3574 27.5002 93.2889 27.5002 96.905C27.5002 100.521 30.4317 103.453 34.0479 103.453Z" fill="#54499E"/>
<path opacity="0.2" d="M146.635 43.7586L77.4827 73.7828C76.9436 74.0168 76.3636 74.1382 75.7772 74.1397C75.1909 74.1411 74.6103 74.0226 74.0701 73.7912L3.9801 43.7674C3.09987 43.3993 2.36552 42.744 1.89307 41.9049C1.58401 42.449 1.39251 43.0536 1.33125 43.6787C1.26999 44.3037 1.3404 44.9349 1.53778 45.5302C1.73517 46.1255 2.05501 46.6713 2.4761 47.1315C2.89719 47.5916 3.40986 47.9556 3.9801 48.1991L74.0701 78.2229C74.6103 78.4543 75.1909 78.5729 75.7772 78.5714C76.3636 78.57 76.9436 78.4486 77.4827 78.2145L146.635 48.1904C147.203 47.9446 147.712 47.5796 148.131 47.1192C148.549 46.6588 148.866 46.1136 149.061 45.5196C149.257 44.9256 149.326 44.2963 149.264 43.6731C149.202 43.05 149.011 42.4473 148.703 41.9048C148.234 42.7372 147.507 43.3889 146.635 43.7586Z" fill="black"/>
<path d="M35.139 96.9043C35.4285 96.9043 35.7061 96.7876 35.9107 96.5799C36.1154 96.3722 36.2304 96.0905 36.2304 95.7968V58.7364L72.2255 45.429C72.515 45.4334 72.7943 45.3209 73.002 45.1162C73.2097 44.9116 73.3289 44.6317 73.3332 44.3379C73.3375 44.0442 73.2266 43.7607 73.025 43.5499C72.8234 43.3391 72.5475 43.2182 72.258 43.2139L36.2629 56.5213C35.9732 56.5145 35.6852 56.5675 35.4163 56.677C35.1475 56.7865 34.9033 56.9503 34.6986 57.1584C34.4917 57.3639 34.3275 57.6095 34.2157 57.8805C34.1039 58.1516 34.0467 58.4426 34.0476 58.7364V95.7968C34.0476 96.0905 34.1626 96.3722 34.3673 96.5799C34.572 96.7876 34.8496 96.9043 35.139 96.9043Z" fill="#54499E"/>
</svg>
