<svg width="444" height="434" viewBox="0 0 444 434" fill="none" xmlns="http://www.w3.org/2000/svg">
<path fill-rule="evenodd" clip-rule="evenodd" d="M45.2742 170.279C54.64 130.903 88.078 102.528 121.358 79.4926C152.643 57.8379 189.028 45.7777 227.053 44.4552C264.552 43.151 300.216 54.4584 333.32 72.1206C369.228 91.2783 416.297 109.49 423.891 149.474C431.598 190.051 380.557 217.387 368.407 256.862C357.022 293.854 387.211 346.34 356.18 369.473C324.754 392.9 282.264 349.236 243.081 350.289C205.642 351.295 171.309 388.901 136.381 375.38C100.959 361.667 88.0609 319.02 72.6411 284.306C56.3747 247.687 36.0021 209.26 45.2742 170.279Z" fill="#8FF6E4"/>
<g clip-path="url(#clip0)">
<path d="M293.48 383.741L282.676 383.74L277.537 341.565L293.484 341.567L293.48 383.741Z" fill="#FFB8B8"/>
<path d="M274.793 380.322H295.763V394H261.59C261.59 392.203 261.932 390.425 262.596 388.765C263.258 387.106 264.231 385.598 265.457 384.328C266.683 383.058 268.139 382.05 269.74 381.363C271.343 380.675 273.059 380.322 274.793 380.322Z" fill="#2F2E41"/>
<path d="M181.851 383.741L171.046 383.74L165.907 341.565L181.854 341.567L181.851 383.741Z" fill="#FFB8B8"/>
<path d="M163.163 380.322H184.133V394H149.961C149.961 392.203 150.303 390.425 150.965 388.765C151.629 387.106 152.602 385.598 153.828 384.328C155.054 383.058 156.509 382.05 158.111 381.363C159.712 380.675 161.43 380.322 163.163 380.322Z" fill="#2F2E41"/>
<path d="M218.305 71.8708V67.0663C218.305 58.8476 221.545 50.9655 227.313 45.154C233.081 39.3425 240.903 36.0776 249.06 36.0776C257.217 36.0776 265.04 39.3425 270.808 45.154C276.575 50.9655 279.816 58.8476 279.816 67.0663V71.8708C279.816 77.7959 277.479 83.4784 273.322 87.6681C269.163 91.8578 263.524 94.2115 257.643 94.2115H240.477C237.566 94.2115 234.682 93.6337 231.993 92.511C229.302 91.3882 226.858 89.7426 224.799 87.6681C222.74 85.5935 221.108 83.1308 219.993 80.4203C218.879 77.7097 218.305 74.8047 218.305 71.8708Z" fill="#2F2E41"/>
<path d="M249.061 95.3508C262.271 95.3508 272.981 84.8888 272.981 71.9833C272.981 59.0777 262.271 48.6157 249.061 48.6157C235.85 48.6157 225.14 59.0777 225.14 71.9833C225.14 84.8888 235.85 95.3508 249.061 95.3508Z" fill="#FFB8B8"/>
<path d="M122.009 152.538C122.941 151.628 124.054 150.941 125.27 150.525C126.486 150.109 127.776 149.973 129.048 150.128C130.321 150.282 131.545 150.723 132.635 151.419C133.725 152.116 134.653 153.051 135.356 154.158L155.033 150.311L160.213 162.099L132.349 167.128C130.471 168.223 128.269 168.569 126.16 168.1C124.051 167.63 122.183 166.377 120.908 164.579C119.634 162.78 119.042 160.561 119.245 158.342C119.448 156.122 120.431 154.058 122.009 152.538Z" fill="#FFB8B8"/>
<path d="M230.74 110.206L231.001 110.605L198.312 132.36L143.153 150.155C142.422 150.393 141.795 150.878 141.378 151.53C140.962 152.182 140.782 152.96 140.869 153.731L142.073 164.202C142.126 164.665 142.275 165.112 142.509 165.514C142.744 165.916 143.058 166.265 143.433 166.536C143.809 166.808 144.236 166.997 144.689 167.092C145.141 167.188 145.607 167.186 146.059 167.089L197.972 155.847C200.484 155.306 202.86 154.25 204.951 152.743L241.676 126.345C243.007 125.384 244.07 124.089 244.759 122.589C245.449 121.09 245.743 119.436 245.613 117.787C245.478 116.136 244.92 114.549 243.995 113.182C243.068 111.815 241.806 110.716 240.332 109.991C238.858 109.266 237.222 108.942 235.586 109.05C233.95 109.157 232.37 109.693 231.001 110.605L230.74 110.206Z" fill="#CCCCCC"/>
<path d="M282.779 371.202C281.939 371.203 281.118 370.959 280.415 370.503C279.712 370.047 279.158 369.397 278.821 368.632L228.686 245.394C228.568 245.126 228.372 244.901 228.123 244.748C227.873 244.595 227.582 244.522 227.29 244.539C226.997 244.555 226.716 244.66 226.486 244.84C226.255 245.019 226.085 245.266 225.999 245.544L185.097 365.521C184.924 366.08 184.639 366.597 184.258 367.041C183.877 367.485 183.408 367.847 182.881 368.106C182.354 368.364 181.78 368.511 181.193 368.539C180.607 368.568 180.021 368.478 179.471 368.272L165.754 363.156C165.01 362.881 164.357 362.405 163.868 361.783C163.379 361.161 163.073 360.415 162.983 359.63C156.813 306.155 210.622 171.177 211.166 169.82L211.317 169.444L260.368 180.238L260.47 180.349C280.039 201.587 296.125 335.544 299.152 362.182C299.264 363.144 299.044 364.117 298.527 364.937C298.01 365.758 297.228 366.38 296.309 366.699L284.202 370.959C283.745 371.12 283.264 371.202 282.779 371.202Z" fill="#2F2E41"/>
<path d="M240.481 184.262C228.734 184.262 215.637 181.901 211.605 172.159L211.512 171.936L211.638 171.728C214.82 166.466 219.026 157.492 216.765 155.807C212.313 152.489 210.152 147.031 210.343 139.583C210.76 123.417 221.691 109.063 237.544 103.867C241.969 102.44 246.472 101.272 251.031 100.368C254.355 99.6922 257.785 99.7662 261.077 100.585C264.368 101.404 267.439 102.949 270.068 105.106C272.73 107.276 274.882 110.015 276.369 113.124C277.857 116.233 278.641 119.635 278.669 123.087C278.835 140.363 276.195 164.426 262.677 180.946C262.043 181.712 261.162 182.23 260.188 182.405C253.684 183.591 247.091 184.212 240.481 184.262Z" fill="#CCCCCC"/>
<path d="M235.733 183.967C236.378 181.595 237.911 179.58 239.997 178.36C242.084 177.138 244.556 176.812 246.877 177.449C247.35 177.585 247.813 177.76 248.258 177.973L263.511 163.745L274.12 171.07L252.306 190.857C251.321 192.677 249.771 194.107 247.901 194.92C246.031 195.733 243.95 195.882 241.989 195.342C240.846 195.022 239.777 194.473 238.843 193.726C237.909 192.979 237.128 192.05 236.546 190.992C235.964 189.934 235.593 188.768 235.454 187.563C235.315 186.357 235.409 185.135 235.733 183.967Z" fill="#FFB8B8"/>
<path d="M261.61 184.261C260.624 184.262 259.668 183.918 258.905 183.289L252.91 178.354C252.41 177.943 252.009 177.422 251.737 176.833C251.465 176.244 251.328 175.6 251.339 174.949C251.349 174.299 251.505 173.66 251.795 173.079C252.084 172.498 252.501 171.991 253.013 171.595L278.157 152.169C278.454 151.937 278.65 151.597 278.701 151.221C278.751 150.846 278.653 150.464 278.427 150.161L262.907 129.492C261.105 127.1 260.2 124.141 260.354 121.14C260.509 118.14 261.712 115.291 263.752 113.098C265.898 110.762 268.839 109.324 271.991 109.07C275.141 108.816 278.272 109.764 280.76 111.727L280.859 111.832L297.064 135.208C298.817 136.593 300.227 138.366 301.187 140.391C302.146 142.414 302.628 144.635 302.595 146.878C302.562 149.121 302.015 151.326 300.996 153.321C299.977 155.315 298.514 157.046 296.722 158.377L264.158 183.416C263.42 183.965 262.527 184.261 261.61 184.261Z" fill="#CCCCCC"/>
<path d="M228.557 65.0253V53.8828L248.965 45.1963L268.424 53.8828V65.0253C268.424 65.5103 268.227 65.9755 267.875 66.3184C267.523 66.6614 267.046 66.8541 266.548 66.8541H230.433C229.936 66.8541 229.458 66.6614 229.107 66.3184C228.754 65.9755 228.557 65.5103 228.557 65.0253Z" fill="#2F2E41"/>
<path d="M247.554 37.6653C244.486 27.8798 250.928 16.6651 260.452 12.7917C269.976 8.9183 281.37 11.6259 289.407 18.0253C297.443 24.4247 302.429 34.0098 305.071 43.9179C307.712 53.826 308.213 64.1579 308.701 74.3983C320.403 76.5405 328.362 90.3732 324.309 101.521C320.256 112.669 305.253 118.208 294.891 112.381C284.529 106.554 281.528 90.8909 289.007 81.6687C292.545 77.305 294.521 71.8894 294.623 66.2796C294.725 60.6699 292.946 55.1866 289.568 50.6984C286.19 46.2101 281.406 42.9734 275.974 41.5009C270.542 40.0284 264.772 40.4042 259.579 42.5689C253.812 44.9726 246.576 38.7274 247.554 37.6653Z" fill="#2F2E41"/>
<path d="M117.497 107.89C103.629 107.797 89.935 104.746 77.2988 98.9332C76.5465 98.592 75.9081 98.0359 75.4611 97.3323C75.0142 96.6286 74.7781 95.8078 74.7815 94.97V59.8012C74.7827 58.6491 75.2332 57.5445 76.034 56.7297C76.8348 55.9151 77.9205 55.4568 79.0531 55.4556H155.941C157.073 55.4569 158.159 55.9151 158.96 56.7298C159.76 57.5445 160.211 58.6491 160.213 59.8012V94.9701C160.216 95.8078 159.979 96.6286 159.532 97.3323C159.085 98.0359 158.447 98.592 157.695 98.9332C145.059 104.746 131.365 107.797 117.497 107.89Z" fill="#BCB2FF"/>
<path d="M117.335 79.3927C116.764 79.3932 116.199 79.2783 115.673 79.0547L54.6148 53.0002C53.8274 52.6642 53.1576 52.0975 52.6916 51.3729C52.2257 50.6483 51.9851 49.7992 52.0007 48.935C52.0164 48.0709 52.2876 47.2312 52.7795 46.5243C53.2714 45.8175 53.9613 45.2759 54.7603 44.9693L115.819 21.5414C116.803 21.1623 117.89 21.1647 118.872 21.548L179.113 44.9759C179.907 45.2849 180.592 45.8267 181.081 46.5318C181.569 47.237 181.839 48.0734 181.854 48.9342C181.87 49.795 181.632 50.641 181.169 51.3639C180.707 52.0867 180.042 52.6537 179.259 52.9922L119.018 79.0462C118.486 79.2753 117.913 79.3932 117.335 79.3927Z" fill="#BCB2FF"/>
<path d="M81.6164 101.051C84.7618 101.051 87.3117 98.4988 87.3117 95.3512C87.3117 92.2036 84.7618 89.6519 81.6164 89.6519C78.4708 89.6519 75.9209 92.2036 75.9209 95.3512C75.9209 98.4988 78.4708 101.051 81.6164 101.051Z" fill="#54499E"/>
<path opacity="0.2" d="M179.549 49.0897L119.398 75.2244C118.929 75.4281 118.424 75.5338 117.914 75.5351C117.404 75.5363 116.899 75.4332 116.429 75.2317L55.4621 49.0974C54.6965 48.777 54.0577 48.2066 53.6467 47.4762C53.3779 47.9498 53.2113 48.4761 53.158 49.0202C53.1048 49.5642 53.166 50.1136 53.3377 50.6318C53.5094 51.15 53.7876 51.6251 54.1539 52.0257C54.5202 52.4262 54.9661 52.743 55.4621 52.955L116.429 79.0893C116.899 79.2908 117.404 79.394 117.914 79.3927C118.424 79.3915 118.929 79.2858 119.398 79.082L179.549 52.9474C180.043 52.7334 180.486 52.4157 180.851 52.015C181.214 51.6142 181.49 51.1396 181.659 50.6226C181.83 50.1055 181.89 49.5578 181.836 49.0153C181.782 48.4729 181.616 47.9483 181.348 47.4761C180.94 48.2006 180.308 48.7679 179.549 49.0897Z" fill="black"/>
<path d="M82.5653 95.3508C82.8171 95.3508 83.0586 95.2492 83.2366 95.0684C83.4146 94.8876 83.5147 94.6424 83.5147 94.3868V62.1274L114.825 50.5439C115.077 50.5477 115.319 50.4498 115.5 50.2716C115.681 50.0935 115.784 49.8499 115.788 49.5941C115.792 49.3385 115.695 49.0917 115.52 48.9082C115.345 48.7247 115.105 48.6195 114.853 48.6157L83.5429 60.1992C83.2909 60.1933 83.0404 60.2394 82.8065 60.3347C82.5727 60.4301 82.3603 60.5726 82.1822 60.7538C82.0023 60.9327 81.8594 61.1464 81.7622 61.3823C81.6649 61.6183 81.6152 61.8716 81.616 62.1274V94.3868C81.616 94.6424 81.716 94.8876 81.8941 95.0684C82.0721 95.2492 82.3136 95.3508 82.5653 95.3508Z" fill="#54499E"/>
</g>
<defs>
<clipPath id="clip0">
<rect width="274" height="383" fill="white" transform="translate(52 11)"/>
</clipPath>
</defs>
</svg>
